<svg width="2467" height="438" fill="none" xmlns="http://www.w3.org/2000/svg"><g clip-path="url(#clip0)" fill="#16161D"><path d="M623.518 154.16h-59.611v162.166h-40.098V154.16H465v-32.486h158.518v32.486zM726.761 245.07h-31.944v71.256h-40.098V121.674h72.309c22.99 0 40.722 5.125 53.196 15.374 12.475 10.25 18.712 24.733 18.712 43.449 0 13.28-2.896 24.376-8.687 33.289-5.703 8.824-14.391 15.865-26.064 21.123l42.103 79.546v1.871H763.25l-36.489-71.256zm-31.944-32.487h32.345c10.069 0 17.866-2.54 23.39-7.62 5.525-5.17 8.287-12.255 8.287-21.257 0-9.18-2.629-16.399-7.886-21.658-5.168-5.258-13.143-7.888-23.925-7.888h-32.211v58.423zM985.047 121.674v128.208c0 21.302-6.683 38.147-20.049 50.535C951.722 312.806 933.544 319 910.466 319c-22.722 0-40.766-6.016-54.132-18.048-13.365-12.032-20.182-28.565-20.449-49.599V121.674h40.097V250.15c0 12.745 3.03 22.059 9.089 27.941 6.148 5.793 14.613 8.69 25.395 8.69 22.544 0 33.994-11.854 34.35-35.562V121.674h40.231zM1185.99 223.412c0 19.162-3.38 35.962-10.15 50.401-6.78 14.438-16.49 25.579-29.14 33.422-12.57 7.843-27 11.765-43.31 11.765-16.12 0-30.52-3.877-43.17-11.631-12.65-7.754-22.45-18.806-29.4-33.155-6.95-14.439-10.47-31.016-10.56-49.733v-9.625c0-19.163 3.43-36.008 10.29-50.535 6.95-14.617 16.71-25.802 29.27-33.556 12.65-7.843 27.09-11.765 43.31-11.765 16.21 0 30.6 3.922 43.17 11.765 12.65 7.754 22.41 18.939 29.27 33.556 6.95 14.527 10.42 31.328 10.42 50.401v8.69zm-40.63-8.824c0-20.41-3.65-35.918-10.96-46.524-7.3-10.606-17.73-15.909-31.27-15.909-13.46 0-23.84 5.259-31.15 15.775-7.3 10.428-11 25.758-11.09 45.99v9.492c0 19.875 3.65 35.294 10.96 46.256 7.31 10.963 17.82 16.444 31.54 16.444 13.46 0 23.79-5.258 31.01-15.775 7.22-10.606 10.87-26.025 10.96-46.257v-9.492zM1381.59 316.326h-40.09l-78.06-128.075v128.075h-40.1V121.674h40.1l78.19 128.342V121.674h39.96v194.652zM1578.8 291.727c-7.22 8.646-17.42 15.375-30.61 20.187-13.19 4.724-27.8 7.086-43.84 7.086-16.84 0-31.63-3.654-44.37-10.963-12.66-7.397-22.46-18.092-29.41-32.085-6.86-13.993-10.38-30.437-10.56-49.332v-13.235c0-19.43 3.26-36.23 9.76-50.401 6.59-14.26 16.04-25.134 28.34-32.62 12.38-7.576 26.86-11.364 43.43-11.364 23.08 0 41.13 5.526 54.14 16.578 13 10.962 20.71 26.96 23.12 47.994h-39.03c-1.78-11.141-5.75-19.296-11.9-24.465-6.05-5.169-14.43-7.754-25.12-7.754-13.64 0-24.02 5.125-31.15 15.374-7.12 10.25-10.73 25.49-10.82 45.722v12.433c0 20.41 3.87 35.829 11.63 46.257 7.75 10.428 19.11 15.642 34.08 15.642 15.06 0 25.8-3.209 32.21-9.626v-33.556h-36.49v-29.546h76.59v77.674zM1748.39 121.674l49.99 141.176 49.72-141.176h52.66v194.652h-40.23v-53.208l4.01-91.845-52.52 145.053h-27.54l-52.39-144.92 4.01 91.712v53.208H1696V121.674h52.39zM1986.63 316.326h-40.1V121.674h40.1v194.652zM2190.39 316.326h-40.1l-78.06-128.075v128.075h-40.1V121.674h40.1l78.19 128.342V121.674h39.97v194.652zM2392 316.326h-40.1v-83.422h-78.19v83.422h-40.09V121.674h40.09v78.877h78.19v-78.877h40.1v194.652zM172.637 108.502h25.916L81.643 393H54l118.637-284.498zM275.148 44h25.916L185.307 327.347h-28.22L275.148 44z"/><path d="M275.149 44h25.915l110.472 264.917L446.769 393H418.55L301.64 108.502h.014L275.149 44zM168.03 302.007h110.574v25.34H168.03zM172.637 108.502h25.916l17.444 41.831-13.114 31.773-30.246-73.604zM210.343 200.26l13.474 32.789 13.268-32.146-13.573-32.549-13.169 31.906z"/><path d="M231.278 251.203l13.322-32.278 45.212 108.422h-27.245l-31.289-76.144z"/></g><defs><clipPath id="clip0"><path fill="#fff" d="M0 0h2467v438H0z"/></clipPath></defs></svg>